<svg id="bbc6a584-3665-4e05-a91a-7acc860aa706" data-name="Layer 2" xmlns="http://www.w3.org/2000/svg" viewBox="0 0 800 564.7"><defs><style>.b4fd281e-6de9-44f7-8d57-7a183008fa4a{fill:#22b573;}</style></defs><rect class="b4fd281e-6de9-44f7-8d57-7a183008fa4a" x="752.9" y="470.6" width="47" height="47.06"/><rect class="b4fd281e-6de9-44f7-8d57-7a183008fa4a" x="705.9" y="423.5" width="47.1" height="47.06"/><rect class="b4fd281e-6de9-44f7-8d57-7a183008fa4a" x="705.9" y="376.5" width="47.1" height="47.05"/><rect class="b4fd281e-6de9-44f7-8d57-7a183008fa4a" x="705.9" y="235.3" width="47.1" height="47.06"/><rect class="b4fd281e-6de9-44f7-8d57-7a183008fa4a" x="658.8" y="376.5" width="47.1" height="47.05"/><rect class="b4fd281e-6de9-44f7-8d57-7a183008fa4a" x="658.8" y="329.4" width="47.1" height="47.06"/><rect class="b4fd281e-6de9-44f7-8d57-7a183008fa4a" x="658.8" y="188.2" width="47.1" height="47.06"/><rect class="b4fd281e-6de9-44f7-8d57-7a183008fa4a" x="611.8" y="376.5" width="47.1" height="47.05"/><rect class="b4fd281e-6de9-44f7-8d57-7a183008fa4a" x="611.8" y="329.4" width="47.1" height="47.06"/><rect class="b4fd281e-6de9-44f7-8d57-7a183008fa4a" x="611.8" y="282.4" width="47.1" height="47.06"/><rect class="b4fd281e-6de9-44f7-8d57-7a183008fa4a" x="611.8" y="188.2" width="47.1" height="47.06"/><rect class="b4fd281e-6de9-44f7-8d57-7a183008fa4a" x="611.8" y="141.2" width="47.1" height="47.06"/><rect class="b4fd281e-6de9-44f7-8d57-7a183008fa4a" x="564.7" y="423.5" width="47.1" height="47.06"/><rect class="b4fd281e-6de9-44f7-8d57-7a183008fa4a" x="564.7" y="376.5" width="47.1" height="47.05"/><rect class="b4fd281e-6de9-44f7-8d57-7a183008fa4a" x="564.7" y="235.3" width="47.1" height="47.06"/><rect class="b4fd281e-6de9-44f7-8d57-7a183008fa4a" x="564.7" y="188.2" width="47.1" height="47.06"/><rect class="b4fd281e-6de9-44f7-8d57-7a183008fa4a" x="564.7" y="141.2" width="47.1" height="47.06"/><rect class="b4fd281e-6de9-44f7-8d57-7a183008fa4a" x="517.6" y="517.6" width="47.1" height="47.06"/><rect class="b4fd281e-6de9-44f7-8d57-7a183008fa4a" x="517.6" y="470.6" width="47.1" height="47.06"/><rect class="b4fd281e-6de9-44f7-8d57-7a183008fa4a" x="517.6" y="423.5" width="47.1" height="47.06"/><rect class="b4fd281e-6de9-44f7-8d57-7a183008fa4a" x="517.6" y="282.4" width="47.1" height="47.06"/><rect class="b4fd281e-6de9-44f7-8d57-7a183008fa4a" x="517.6" y="235.3" width="47.1" height="47.06"/><rect class="b4fd281e-6de9-44f7-8d57-7a183008fa4a" x="470.6" y="517.6" width="47.1" height="47.06"/><rect class="b4fd281e-6de9-44f7-8d57-7a183008fa4a" x="470.6" y="470.6" width="47.1" height="47.06"/><rect class="b4fd281e-6de9-44f7-8d57-7a183008fa4a" x="470.6" y="376.5" width="47.1" height="47.05"/><rect class="b4fd281e-6de9-44f7-8d57-7a183008fa4a" x="470.6" y="329.4" width="47.1" height="47.06"/><rect class="b4fd281e-6de9-44f7-8d57-7a183008fa4a" x="470.6" y="282.4" width="47.1" height="47.06"/><rect class="b4fd281e-6de9-44f7-8d57-7a183008fa4a" x="470.6" y="141.2" width="47.1" height="47.06"/><rect class="b4fd281e-6de9-44f7-8d57-7a183008fa4a" x="423.5" y="517.6" width="47.1" height="47.06"/><rect class="b4fd281e-6de9-44f7-8d57-7a183008fa4a" x="423.5" y="470.6" width="47.1" height="47.06"/><rect class="b4fd281e-6de9-44f7-8d57-7a183008fa4a" x="423.5" y="423.5" width="47.1" height="47.06"/><rect class="b4fd281e-6de9-44f7-8d57-7a183008fa4a" x="423.5" y="94.1" width="47.1" height="47.06"/><rect class="b4fd281e-6de9-44f7-8d57-7a183008fa4a" x="376.5" y="517.6" width="47" height="47.06"/><rect class="b4fd281e-6de9-44f7-8d57-7a183008fa4a" x="376.5" y="470.6" width="47" height="47.06"/><rect class="b4fd281e-6de9-44f7-8d57-7a183008fa4a" x="376.5" y="423.5" width="47" height="47.06"/><rect class="b4fd281e-6de9-44f7-8d57-7a183008fa4a" x="376.5" y="376.5" width="47" height="47.05"/><rect class="b4fd281e-6de9-44f7-8d57-7a183008fa4a" x="376.5" y="329.4" width="47" height="47.06"/><rect class="b4fd281e-6de9-44f7-8d57-7a183008fa4a" x="376.5" y="282.4" width="47" height="47.06"/><rect class="b4fd281e-6de9-44f7-8d57-7a183008fa4a" x="376.5" y="235.3" width="47" height="47.06"/><rect class="b4fd281e-6de9-44f7-8d57-7a183008fa4a" x="376.5" y="188.2" width="47" height="47.06"/><rect class="b4fd281e-6de9-44f7-8d57-7a183008fa4a" x="376.5" y="141.2" width="47" height="47.06"/><rect class="b4fd281e-6de9-44f7-8d57-7a183008fa4a" x="376.5" y="94.1" width="47" height="47.06"/><rect class="b4fd281e-6de9-44f7-8d57-7a183008fa4a" x="376.5" y="47.1" width="47" height="47.06"/><rect class="b4fd281e-6de9-44f7-8d57-7a183008fa4a" x="329.4" y="517.6" width="47.1" height="47.06"/><rect class="b4fd281e-6de9-44f7-8d57-7a183008fa4a" x="329.4" y="470.6" width="47.1" height="47.06"/><rect class="b4fd281e-6de9-44f7-8d57-7a183008fa4a" x="329.4" y="423.5" width="47.1" height="47.06"/><rect class="b4fd281e-6de9-44f7-8d57-7a183008fa4a" x="329.4" y="235.3" width="47.1" height="47.06"/><rect class="b4fd281e-6de9-44f7-8d57-7a183008fa4a" x="329.4" width="47.1" height="47.06"/><rect class="b4fd281e-6de9-44f7-8d57-7a183008fa4a" x="282.4" y="517.6" width="47.1" height="47.06"/><rect class="b4fd281e-6de9-44f7-8d57-7a183008fa4a" x="282.4" y="470.6" width="47.1" height="47.06"/><rect class="b4fd281e-6de9-44f7-8d57-7a183008fa4a" x="282.4" y="376.5" width="47.1" height="47.05"/><rect class="b4fd281e-6de9-44f7-8d57-7a183008fa4a" x="282.4" y="329.4" width="47.1" height="47.06"/><rect class="b4fd281e-6de9-44f7-8d57-7a183008fa4a" x="282.4" y="282.4" width="47.1" height="47.06"/><rect class="b4fd281e-6de9-44f7-8d57-7a183008fa4a" x="282.4" y="94.1" width="47.1" height="47.06"/><rect class="b4fd281e-6de9-44f7-8d57-7a183008fa4a" x="282.4" y="47.1" width="47.1" height="47.06"/><rect class="b4fd281e-6de9-44f7-8d57-7a183008fa4a" x="235.3" y="517.6" width="47.1" height="47.06"/><rect class="b4fd281e-6de9-44f7-8d57-7a183008fa4a" x="235.3" y="470.6" width="47.1" height="47.06"/><rect class="b4fd281e-6de9-44f7-8d57-7a183008fa4a" x="235.3" y="423.5" width="47.1" height="47.06"/><rect class="b4fd281e-6de9-44f7-8d57-7a183008fa4a" x="235.3" y="282.4" width="47.1" height="47.06"/><rect class="b4fd281e-6de9-44f7-8d57-7a183008fa4a" x="235.3" y="235.3" width="47.1" height="47.06"/><rect class="b4fd281e-6de9-44f7-8d57-7a183008fa4a" x="188.2" y="423.5" width="47.1" height="47.06"/><rect class="b4fd281e-6de9-44f7-8d57-7a183008fa4a" x="188.2" y="376.5" width="47.1" height="47.05"/><rect class="b4fd281e-6de9-44f7-8d57-7a183008fa4a" x="188.2" y="235.3" width="47.1" height="47.06"/><rect class="b4fd281e-6de9-44f7-8d57-7a183008fa4a" x="188.2" y="188.2" width="47.1" height="47.06"/><rect class="b4fd281e-6de9-44f7-8d57-7a183008fa4a" x="188.2" y="141.2" width="47.1" height="47.06"/><rect class="b4fd281e-6de9-44f7-8d57-7a183008fa4a" x="141.2" y="376.5" width="47.1" height="47.05"/><rect class="b4fd281e-6de9-44f7-8d57-7a183008fa4a" x="141.2" y="329.4" width="47.1" height="47.06"/><rect class="b4fd281e-6de9-44f7-8d57-7a183008fa4a" x="141.2" y="188.2" width="47.1" height="47.06"/><rect class="b4fd281e-6de9-44f7-8d57-7a183008fa4a" x="141.2" y="141.2" width="47.1" height="47.06"/><rect class="b4fd281e-6de9-44f7-8d57-7a183008fa4a" x="94.1" y="376.5" width="47.1" height="47.05"/><rect class="b4fd281e-6de9-44f7-8d57-7a183008fa4a" x="94.1" y="329.4" width="47.1" height="47.06"/><rect class="b4fd281e-6de9-44f7-8d57-7a183008fa4a" x="94.1" y="282.4" width="47.1" height="47.06"/><rect class="b4fd281e-6de9-44f7-8d57-7a183008fa4a" x="94.1" y="188.2" width="47.1" height="47.06"/><rect class="b4fd281e-6de9-44f7-8d57-7a183008fa4a" x="47.1" y="423.5" width="47.1" height="47.06"/><rect class="b4fd281e-6de9-44f7-8d57-7a183008fa4a" x="47.1" y="376.5" width="47.1" height="47.05"/><rect class="b4fd281e-6de9-44f7-8d57-7a183008fa4a" x="47.1" y="235.3" width="47.1" height="47.06"/><rect class="b4fd281e-6de9-44f7-8d57-7a183008fa4a" y="470.6" width="47.1" height="47.06"/></svg>