<svg id="ed7339b4-9396-4731-92b4-bec546d32b59" data-name="tree export" xmlns="http://www.w3.org/2000/svg" viewBox="0 0 752.9 752.9"><defs><style>.af927c36-7d2b-4c0b-aa43-baf99b9751a8{fill:#684912;}.ad9b82a8-9837-4357-abb6-222ecece2406{fill:#22b573;}</style></defs><rect x="564.7" y="235.3" width="47" height="47.06"/><rect class="af927c36-7d2b-4c0b-aa43-baf99b9751a8" x="329.4" y="611.8" width="47.1" height="47.06"/><rect class="af927c36-7d2b-4c0b-aa43-baf99b9751a8" x="470.6" y="658.8" width="47.1" height="47.06"/><rect class="af927c36-7d2b-4c0b-aa43-baf99b9751a8" x="423.5" y="658.8" width="47.1" height="47.06"/><rect class="af927c36-7d2b-4c0b-aa43-baf99b9751a8" x="376.5" y="658.8" width="47.1" height="47.06"/><rect class="af927c36-7d2b-4c0b-aa43-baf99b9751a8" x="329.4" y="658.8" width="47.1" height="47.06"/><rect class="af927c36-7d2b-4c0b-aa43-baf99b9751a8" x="282.3" y="658.8" width="47.1" height="47.06"/><rect class="af927c36-7d2b-4c0b-aa43-baf99b9751a8" x="235.3" y="658.8" width="47.1" height="47.06"/><rect class="af927c36-7d2b-4c0b-aa43-baf99b9751a8" x="235.3" y="611.8" width="47.1" height="47.06"/><rect x="188.2" y="658.8" width="47" height="47.06"/><rect x="564.7" y="705.9" width="47" height="47.06"/><rect x="611.8" y="705.9" width="47.1" height="47.06"/><rect x="658.8" y="705.9" width="47.1" height="47.06"/><rect x="517.7" y="705.9" width="47.1" height="47.06"/><rect x="470.6" y="705.9" width="47.1" height="47.06"/><rect x="423.5" y="705.9" width="47.1" height="47.06"/><rect x="141.2" y="705.9" width="47.1" height="47.06"/><rect x="188.2" y="705.9" width="47" height="47.06"/><rect x="282.3" y="705.9" width="47.1" height="47.06"/><rect x="235.3" y="705.9" width="47.1" height="47.06"/><rect x="329.4" y="705.9" width="47.1" height="47.06"/><rect x="376.5" y="705.9" width="47.1" height="47.06"/><rect x="517.7" y="658.8" width="47.1" height="47.06"/><rect x="564.7" y="658.8" width="47" height="47.06"/><rect x="658.8" y="658.8" width="47.1" height="47.06"/><rect x="611.8" y="658.8" width="47.1" height="47.06"/><rect x="705.9" y="658.8" width="47.1" height="47.06"/><rect x="470.6" y="611.8" width="47.1" height="47.06"/><rect x="423.5" y="611.8" width="47.1" height="47.06"/><rect x="376.5" y="611.8" width="47.1" height="47.06"/><rect x="611.8" y="564.7" width="47.1" height="47.06"/><rect x="564.7" y="564.7" width="47" height="47.06"/><rect x="517.7" y="564.7" width="47.1" height="47.06"/><rect x="470.6" y="564.7" width="47.1" height="47.06"/><rect x="423.5" y="564.7" width="47.1" height="47.06"/><rect x="376.5" y="564.7" width="47.1" height="47.06"/><rect x="658.8" y="517.6" width="47.1" height="47.05"/><rect x="611.8" y="517.6" width="47.1" height="47.05"/><rect x="517.7" y="517.6" width="47.1" height="47.05"/><rect x="658.8" y="470.6" width="47.1" height="47.06"/><rect x="611.8" y="470.6" width="47.1" height="47.06"/><rect x="564.7" y="470.6" width="47" height="47.06"/><rect x="517.7" y="470.6" width="47.1" height="47.06"/><rect x="470.6" y="470.6" width="47.1" height="47.06"/><rect x="658.8" y="423.5" width="47.1" height="47.06"/><rect x="611.8" y="423.5" width="47.1" height="47.06"/><rect x="564.7" y="423.5" width="47" height="47.06"/><rect x="705.9" y="376.5" width="47.1" height="47.06"/><rect x="611.8" y="376.5" width="47.1" height="47.06"/><rect x="564.7" y="376.5" width="47" height="47.06"/><rect x="705.9" y="329.4" width="47.1" height="47.06"/><rect x="658.8" y="329.4" width="47.1" height="47.06"/><rect x="611.8" y="329.4" width="47.1" height="47.06"/><rect x="564.7" y="329.4" width="47" height="47.06"/><rect x="705.9" y="282.3" width="47.1" height="47.06"/><rect x="658.8" y="282.3" width="47.1" height="47.06"/><rect x="611.8" y="282.3" width="47.1" height="47.06"/><rect x="564.7" y="282.3" width="47" height="47.06"/><rect x="517.7" y="282.3" width="47.1" height="47.06"/><rect x="517.7" y="235.3" width="47.1" height="47.06"/><rect x="517.7" y="188.2" width="47.1" height="47.06"/><rect x="658.8" y="235.3" width="47.1" height="47.06"/><rect x="611.8" y="235.3" width="47.1" height="47.06"/><rect x="705.9" y="188.2" width="47.1" height="47.06"/><rect x="658.8" y="188.2" width="47.1" height="47.06"/><rect x="611.8" y="188.2" width="47.1" height="47.06"/><rect x="658.8" y="141.2" width="47.1" height="47.05"/><rect x="611.8" y="141.2" width="47.1" height="47.05"/><rect x="564.7" y="141.2" width="47" height="47.05"/><rect x="658.8" y="94.1" width="47.1" height="47.06"/><rect x="564.7" y="94.1" width="47" height="47.06"/><rect x="517.7" y="94.1" width="47.1" height="47.06"/><rect x="611.8" y="47.1" width="47.1" height="47.06"/><rect x="564.7" y="47.1" width="47" height="47.06"/><rect x="517.7" y="47.1" width="47.1" height="47.06"/><rect x="470.6" y="47.1" width="47.1" height="47.06"/><rect x="470.6" width="47.1" height="47.06"/><rect x="423.5" width="47.1" height="47.06"/><rect x="376.5" width="47.1" height="47.06"/><rect x="329.4" width="47.1" height="47.06"/><rect x="423.5" y="376.5" width="47.1" height="47.06"/><rect x="329.4" y="188.2" width="47.1" height="47.06"/><rect x="188.2" y="94.1" width="47" height="47.06"/><rect x="94.1" y="282.3" width="47.1" height="47.06"/><rect x="188.2" y="423.5" width="47" height="47.06"/><rect x="94.1" y="517.6" width="47.1" height="47.05"/><rect class="ad9b82a8-9837-4357-abb6-222ecece2406" x="282.3" y="611.8" width="47.1" height="47.06"/><rect class="ad9b82a8-9837-4357-abb6-222ecece2406" x="235.3" y="564.7" width="47.1" height="47.06"/><rect class="ad9b82a8-9837-4357-abb6-222ecece2406" x="282.3" y="564.7" width="47.1" height="47.06"/><rect class="ad9b82a8-9837-4357-abb6-222ecece2406" x="329.4" y="564.7" width="47.1" height="47.06"/><rect class="ad9b82a8-9837-4357-abb6-222ecece2406" x="470.6" y="517.6" width="47.1" height="47.05"/><rect class="ad9b82a8-9837-4357-abb6-222ecece2406" x="235.3" y="517.6" width="47.1" height="47.05"/><rect class="ad9b82a8-9837-4357-abb6-222ecece2406" x="329.4" y="517.6" width="47.1" height="47.05"/><rect class="ad9b82a8-9837-4357-abb6-222ecece2406" x="282.3" y="517.6" width="47.1" height="47.05"/><rect class="ad9b82a8-9837-4357-abb6-222ecece2406" x="376.5" y="517.6" width="47.1" height="47.05"/><rect class="ad9b82a8-9837-4357-abb6-222ecece2406" x="423.5" y="517.6" width="47.1" height="47.05"/><rect class="ad9b82a8-9837-4357-abb6-222ecece2406" x="235.3" y="470.6" width="47.1" height="47.06"/><rect class="ad9b82a8-9837-4357-abb6-222ecece2406" x="282.3" y="470.6" width="47.1" height="47.06"/><rect class="ad9b82a8-9837-4357-abb6-222ecece2406" x="329.4" y="470.6" width="47.1" height="47.06"/><rect class="ad9b82a8-9837-4357-abb6-222ecece2406" x="376.5" y="470.6" width="47.1" height="47.06"/><rect class="ad9b82a8-9837-4357-abb6-222ecece2406" x="423.5" y="470.6" width="47.1" height="47.06"/><rect class="ad9b82a8-9837-4357-abb6-222ecece2406" x="517.7" y="423.5" width="47.1" height="47.06"/><rect class="ad9b82a8-9837-4357-abb6-222ecece2406" x="470.6" y="423.5" width="47.1" height="47.06"/><rect class="ad9b82a8-9837-4357-abb6-222ecece2406" x="235.3" y="423.5" width="47.1" height="47.06"/><rect class="ad9b82a8-9837-4357-abb6-222ecece2406" x="329.4" y="423.5" width="47.1" height="47.06"/><rect class="ad9b82a8-9837-4357-abb6-222ecece2406" x="282.3" y="423.5" width="47.1" height="47.06"/><rect class="ad9b82a8-9837-4357-abb6-222ecece2406" x="376.5" y="423.5" width="47.1" height="47.06"/><rect class="ad9b82a8-9837-4357-abb6-222ecece2406" x="423.5" y="423.5" width="47.1" height="47.06"/><rect class="ad9b82a8-9837-4357-abb6-222ecece2406" x="141.2" y="423.5" width="47.1" height="47.06"/><rect class="ad9b82a8-9837-4357-abb6-222ecece2406" x="517.7" y="376.5" width="47.1" height="47.06"/><rect class="ad9b82a8-9837-4357-abb6-222ecece2406" x="470.6" y="376.5" width="47.1" height="47.06"/><rect class="ad9b82a8-9837-4357-abb6-222ecece2406" x="141.2" y="376.5" width="47.1" height="47.06"/><rect class="ad9b82a8-9837-4357-abb6-222ecece2406" x="188.2" y="376.5" width="47" height="47.06"/><rect class="ad9b82a8-9837-4357-abb6-222ecece2406" x="235.3" y="376.5" width="47.1" height="47.06"/><rect class="ad9b82a8-9837-4357-abb6-222ecece2406" x="329.4" y="376.5" width="47.1" height="47.06"/><rect class="ad9b82a8-9837-4357-abb6-222ecece2406" x="282.3" y="376.5" width="47.1" height="47.06"/><rect class="ad9b82a8-9837-4357-abb6-222ecece2406" x="376.5" y="376.5" width="47.1" height="47.06"/><rect class="ad9b82a8-9837-4357-abb6-222ecece2406" x="470.6" y="329.4" width="47.1" height="47.06"/><rect class="ad9b82a8-9837-4357-abb6-222ecece2406" x="517.7" y="329.4" width="47.1" height="47.06"/><rect class="ad9b82a8-9837-4357-abb6-222ecece2406" x="188.2" y="329.4" width="47" height="47.06"/><rect class="ad9b82a8-9837-4357-abb6-222ecece2406" x="235.3" y="329.4" width="47.1" height="47.06"/><rect class="ad9b82a8-9837-4357-abb6-222ecece2406" x="329.4" y="329.4" width="47.1" height="47.06"/><rect class="ad9b82a8-9837-4357-abb6-222ecece2406" x="282.3" y="329.4" width="47.1" height="47.06"/><rect class="ad9b82a8-9837-4357-abb6-222ecece2406" x="376.5" y="329.4" width="47.1" height="47.06"/><rect class="ad9b82a8-9837-4357-abb6-222ecece2406" x="423.5" y="329.4" width="47.1" height="47.06"/><rect class="ad9b82a8-9837-4357-abb6-222ecece2406" x="470.6" y="282.3" width="47.1" height="47.06"/><rect class="ad9b82a8-9837-4357-abb6-222ecece2406" x="188.2" y="282.3" width="47" height="47.06"/><rect class="ad9b82a8-9837-4357-abb6-222ecece2406" x="235.3" y="282.3" width="47.1" height="47.06"/><rect class="ad9b82a8-9837-4357-abb6-222ecece2406" x="329.4" y="282.3" width="47.1" height="47.06"/><rect class="ad9b82a8-9837-4357-abb6-222ecece2406" x="282.3" y="282.3" width="47.1" height="47.06"/><rect class="ad9b82a8-9837-4357-abb6-222ecece2406" x="376.5" y="282.3" width="47.1" height="47.06"/><rect class="ad9b82a8-9837-4357-abb6-222ecece2406" x="423.5" y="282.3" width="47.1" height="47.06"/><rect class="ad9b82a8-9837-4357-abb6-222ecece2406" x="564.7" y="517.6" width="47" height="47.05"/><rect class="ad9b82a8-9837-4357-abb6-222ecece2406" x="658.8" y="376.5" width="47.1" height="47.06"/><rect class="ad9b82a8-9837-4357-abb6-222ecece2406" x="611.8" y="94.1" width="47.1" height="47.06"/><rect class="ad9b82a8-9837-4357-abb6-222ecece2406" x="470.6" y="94.1" width="47.1" height="47.06"/><rect class="ad9b82a8-9837-4357-abb6-222ecece2406" x="329.4" y="94.1" width="47.1" height="47.06"/><rect class="ad9b82a8-9837-4357-abb6-222ecece2406" x="282.3" y="94.1" width="47.1" height="47.06"/><rect class="ad9b82a8-9837-4357-abb6-222ecece2406" x="376.5" y="94.1" width="47.1" height="47.06"/><rect class="ad9b82a8-9837-4357-abb6-222ecece2406" x="423.5" y="94.1" width="47.1" height="47.06"/><rect class="ad9b82a8-9837-4357-abb6-222ecece2406" x="423.5" y="47.1" width="47.1" height="47.06"/><rect class="ad9b82a8-9837-4357-abb6-222ecece2406" x="376.5" y="47.1" width="47.1" height="47.06"/><rect class="ad9b82a8-9837-4357-abb6-222ecece2406" x="329.4" y="47.1" width="47.1" height="47.06"/><rect class="ad9b82a8-9837-4357-abb6-222ecece2406" x="282.3" width="47.1" height="47.06"/><rect class="ad9b82a8-9837-4357-abb6-222ecece2406" x="282.3" y="47.1" width="47.1" height="47.06"/><rect class="ad9b82a8-9837-4357-abb6-222ecece2406" x="235.3" y="47.1" width="47.1" height="47.06"/><rect class="ad9b82a8-9837-4357-abb6-222ecece2406" x="188.2" y="47.1" width="47" height="47.06"/><rect class="ad9b82a8-9837-4357-abb6-222ecece2406" x="188.2" width="47" height="47.06"/><rect class="ad9b82a8-9837-4357-abb6-222ecece2406" x="235.3" y="94.1" width="47.1" height="47.06"/><rect class="ad9b82a8-9837-4357-abb6-222ecece2406" x="141.2" y="94.1" width="47.1" height="47.06"/><rect class="ad9b82a8-9837-4357-abb6-222ecece2406" x="94.1" y="94.1" width="47.1" height="47.06"/><rect class="ad9b82a8-9837-4357-abb6-222ecece2406" x="94.1" y="47.1" width="47.1" height="47.06"/><rect class="ad9b82a8-9837-4357-abb6-222ecece2406" x="564.7" y="188.2" width="47" height="47.06"/><rect class="ad9b82a8-9837-4357-abb6-222ecece2406" x="517.7" y="141.2" width="47.1" height="47.05"/><rect class="ad9b82a8-9837-4357-abb6-222ecece2406" x="470.6" y="141.2" width="47.1" height="47.05"/><rect class="ad9b82a8-9837-4357-abb6-222ecece2406" x="94.1" y="141.2" width="47.1" height="47.05"/><rect class="ad9b82a8-9837-4357-abb6-222ecece2406" x="47.1" y="141.2" width="47.1" height="47.05"/><rect class="ad9b82a8-9837-4357-abb6-222ecece2406" x="141.2" y="141.2" width="47.1" height="47.05"/><rect class="ad9b82a8-9837-4357-abb6-222ecece2406" x="188.2" y="141.2" width="47" height="47.05"/><rect class="ad9b82a8-9837-4357-abb6-222ecece2406" x="235.3" y="141.2" width="47.1" height="47.05"/><rect class="ad9b82a8-9837-4357-abb6-222ecece2406" x="282.3" y="141.2" width="47.1" height="47.05"/><rect class="ad9b82a8-9837-4357-abb6-222ecece2406" x="329.4" y="141.2" width="47.1" height="47.05"/><rect class="ad9b82a8-9837-4357-abb6-222ecece2406" x="376.5" y="141.2" width="47.1" height="47.05"/><rect class="ad9b82a8-9837-4357-abb6-222ecece2406" x="423.5" y="141.2" width="47.1" height="47.05"/><rect class="ad9b82a8-9837-4357-abb6-222ecece2406" x="470.6" y="188.2" width="47.1" height="47.06"/><rect class="ad9b82a8-9837-4357-abb6-222ecece2406" x="376.5" y="188.2" width="47.1" height="47.06"/><rect class="ad9b82a8-9837-4357-abb6-222ecece2406" x="423.5" y="188.2" width="47.1" height="47.06"/><rect class="ad9b82a8-9837-4357-abb6-222ecece2406" x="470.6" y="235.3" width="47.1" height="47.06"/><rect class="ad9b82a8-9837-4357-abb6-222ecece2406" x="329.4" y="235.3" width="47.1" height="47.06"/><rect class="ad9b82a8-9837-4357-abb6-222ecece2406" x="376.5" y="235.3" width="47.1" height="47.06"/><rect class="ad9b82a8-9837-4357-abb6-222ecece2406" x="423.5" y="235.3" width="47.1" height="47.06"/><rect class="ad9b82a8-9837-4357-abb6-222ecece2406" x="188.2" y="235.3" width="47" height="47.06"/><rect class="ad9b82a8-9837-4357-abb6-222ecece2406" x="235.3" y="235.3" width="47.1" height="47.06"/><rect class="ad9b82a8-9837-4357-abb6-222ecece2406" x="282.3" y="235.3" width="47.1" height="47.06"/><rect class="ad9b82a8-9837-4357-abb6-222ecece2406" x="47.1" y="188.2" width="47.1" height="47.06"/><rect class="ad9b82a8-9837-4357-abb6-222ecece2406" x="141.2" y="188.2" width="47.1" height="47.06"/><rect class="ad9b82a8-9837-4357-abb6-222ecece2406" x="94.1" y="188.2" width="47.1" height="47.06"/><rect class="ad9b82a8-9837-4357-abb6-222ecece2406" x="188.2" y="188.2" width="47" height="47.06"/><rect class="ad9b82a8-9837-4357-abb6-222ecece2406" x="235.3" y="188.2" width="47.1" height="47.06"/><rect class="ad9b82a8-9837-4357-abb6-222ecece2406" x="282.3" y="188.2" width="47.1" height="47.06"/><rect class="ad9b82a8-9837-4357-abb6-222ecece2406" x="94.1" y="235.3" width="47.1" height="47.06"/><rect class="ad9b82a8-9837-4357-abb6-222ecece2406" y="235.3" width="47.1" height="47.06"/><rect class="ad9b82a8-9837-4357-abb6-222ecece2406" x="47.1" y="235.3" width="47.1" height="47.06"/><rect class="ad9b82a8-9837-4357-abb6-222ecece2406" x="141.2" y="235.3" width="47.1" height="47.06"/><rect class="ad9b82a8-9837-4357-abb6-222ecece2406" x="141.2" y="282.3" width="47.1" height="47.06"/><rect class="ad9b82a8-9837-4357-abb6-222ecece2406" x="141.2" y="329.4" width="47.1" height="47.06"/><rect class="ad9b82a8-9837-4357-abb6-222ecece2406" x="94.1" y="329.4" width="47.1" height="47.06"/><rect class="ad9b82a8-9837-4357-abb6-222ecece2406" x="94.1" y="376.5" width="47.1" height="47.06"/><rect class="ad9b82a8-9837-4357-abb6-222ecece2406" x="94.1" y="423.5" width="47.1" height="47.06"/><rect class="ad9b82a8-9837-4357-abb6-222ecece2406" x="94.1" y="470.6" width="47.1" height="47.06"/><rect class="ad9b82a8-9837-4357-abb6-222ecece2406" x="141.2" y="470.6" width="47.1" height="47.06"/><rect class="ad9b82a8-9837-4357-abb6-222ecece2406" x="141.2" y="517.6" width="47.1" height="47.05"/><rect class="ad9b82a8-9837-4357-abb6-222ecece2406" x="188.2" y="517.6" width="47" height="47.05"/><rect class="ad9b82a8-9837-4357-abb6-222ecece2406" x="188.2" y="470.6" width="47" height="47.06"/><rect class="ad9b82a8-9837-4357-abb6-222ecece2406" x="188.2" y="564.7" width="47" height="47.06"/><rect class="ad9b82a8-9837-4357-abb6-222ecece2406" x="188.2" y="611.8" width="47" height="47.06"/><rect class="ad9b82a8-9837-4357-abb6-222ecece2406" x="141.2" y="611.8" width="47.1" height="47.06"/><rect class="ad9b82a8-9837-4357-abb6-222ecece2406" x="141.2" y="564.7" width="47.1" height="47.06"/><rect class="ad9b82a8-9837-4357-abb6-222ecece2406" x="94.1" y="564.7" width="47.1" height="47.06"/><rect class="ad9b82a8-9837-4357-abb6-222ecece2406" x="47.1" y="564.7" width="47.1" height="47.06"/><rect class="ad9b82a8-9837-4357-abb6-222ecece2406" x="47.1" y="470.6" width="47.1" height="47.06"/><rect class="ad9b82a8-9837-4357-abb6-222ecece2406" x="47.1" y="517.6" width="47.1" height="47.05"/><rect class="ad9b82a8-9837-4357-abb6-222ecece2406" y="517.6" width="47.1" height="47.05"/><rect class="ad9b82a8-9837-4357-abb6-222ecece2406" y="470.6" width="47.1" height="47.06"/><rect class="ad9b82a8-9837-4357-abb6-222ecece2406" y="423.5" width="47.1" height="47.06"/><rect class="ad9b82a8-9837-4357-abb6-222ecece2406" x="47.1" y="423.5" width="47.1" height="47.06"/><rect class="ad9b82a8-9837-4357-abb6-222ecece2406" x="47.1" y="376.5" width="47.1" height="47.06"/><rect class="ad9b82a8-9837-4357-abb6-222ecece2406" x="47.1" y="329.4" width="47.1" height="47.06"/><rect class="ad9b82a8-9837-4357-abb6-222ecece2406" x="47.1" y="282.3" width="47.1" height="47.06"/><rect class="ad9b82a8-9837-4357-abb6-222ecece2406" y="329.4" width="47.1" height="47.06"/><rect class="ad9b82a8-9837-4357-abb6-222ecece2406" y="282.3" width="47.1" height="47.06"/></svg>